<svg xmlns="http://www.w3.org/2000/svg" width="800" height="900" viewBox="0 0 800 900">
<g fill="none" stroke="#000" stroke-width="1.6" stroke-linecap="round" stroke-linejoin="round">
  <g transform="translate(-5,-8) rotate(8 27 20)">
    <rect x="4" y="2" width="46" height="28" rx="3"/><rect x="8" y="6" width="38" height="20" rx="1"/><path d="M0 30l6 6h42l6-6"/>
  </g>
  <g transform="translate(80,-1) rotate(-8 23 19)">
    <rect x="0" y="0" width="46" height="38" rx="4"/><line x1="0" y1="10" x2="46" y2="10"/><circle cx="7" cy="5" r="2"/><circle cx="14" cy="5" r="2"/><circle cx="21" cy="5" r="2"/><polyline points="10,17 18,23 10,29" fill="none"/><line x1="22" y1="29" x2="36" y2="29"/>
  </g>
  <g transform="translate(161,-5) rotate(6 20 24)">
    <path d="M12 2c-6 0-8 4-8 8v10c0 3-2 4-4 4 2 0 4 1 4 4v10c0 4 2 8 8 8"/><path d="M28 2c6 0 8 4 8 8v10c0 3 2 4 4 4-2 0-4 1-4 4v10c0 4-2 8-8 8"/>
  </g>
  <g transform="translate(249,5) rotate(-14 24 22)">
    <path d="M24 42v-6"/><path d="M14 8c-8 0-12 6-12 14s4 12 10 14v4"/><path d="M34 8c8 0 12 6 12 14s-4 12-10 14v4"/><path d="M14 18c3-2 7-2 10 0s7 2 10 0"/><path d="M12 28c4-2 8 0 12 2 4 2 8 3 12 1"/>
  </g>
  <g transform="translate(332,-6) rotate(-9 18 25)">
    <path d="M18 6a13 13 0 00-7 24v5h14v-5A13 13 0 0018 6z"/><line x1="11" y1="38" x2="25" y2="38"/><line x1="12" y1="42" x2="24" y2="42"/><path d="M14 45a4 4 0 008 0"/><line x1="18" y1="0" x2="18" y2="3"/><line x1="4" y1="19" x2="1" y2="19"/><line x1="32" y1="19" x2="35" y2="19"/><line x1="7" y1="9" x2="5" y2="7"/><line x1="29" y1="9" x2="31" y2="7"/>
  </g>
  <g transform="translate(424,8) rotate(4 25 20)">
    <path d="M25 6c-5-3-12-4-21-2v30c9-2 16-1 21 2"/><path d="M25 6c5-3 12-4 21-2v30c-9-2-16-1-21 2"/><line x1="25" y1="6" x2="25" y2="36"/>
  </g>
  <g transform="translate(502,-2) rotate(7 20 22)">
    <path d="M4 14h26v20a6 6 0 01-6 6H10a6 6 0 01-6-6z"/><path d="M30 18h5a5 5 0 010 10h-5"/><path d="M12 8c0-5 4-5 4 0"/><path d="M20 6c0-5 4-5 4 0"/><line x1="0" y1="44" x2="40" y2="44"/>
  </g>
  <g transform="translate(605,-1) rotate(-1 22 22)">
    <circle cx="22" cy="22" r="8"/><circle cx="22" cy="22" r="15"/><line x1="22" y1="0" x2="22" y2="7"/><line x1="22" y1="37" x2="22" y2="44"/><line x1="0" y1="22" x2="7" y2="22"/><line x1="37" y1="22" x2="44" y2="22"/><line x1="6" y1="6" x2="11" y2="11"/><line x1="33" y1="33" x2="38" y2="38"/><line x1="6" y1="38" x2="11" y2="33"/><line x1="33" y1="11" x2="38" y2="6"/>
  </g>
  <g transform="translate(690,-8) rotate(9 16 27)">
    <path d="M16 4c-5 6-8 16-8 26h-6l4 8h6l2 8 2-8h6l4-8h-6c0-10-3-20-8-26z"/><circle cx="16" cy="22" r="5"/>
  </g>
  <g transform="translate(32,77) rotate(-5 21 21)">
    <circle cx="18" cy="18" r="14"/><circle cx="18" cy="18" r="9"/><line x1="28" y1="28" x2="40" y2="40" stroke-linecap="round"/>
  </g>
  <g transform="translate(115,68) rotate(-9 17 22)">
    <rect x="3" y="18" width="28" height="24" rx="4"/><path d="M9 18v-7a8 8 0 0116 0v7"/><circle cx="17" cy="31" r="3"/><line x1="17" y1="34" x2="17" y2="38"/>
  </g>
  <g transform="translate(202,67) rotate(-13 26 17)">
    <path d="M14 30a9 9 0 01-1-18A14 14 0 0140 8a8 8 0 012 16z"/>
  </g>
  <g transform="translate(294,67) rotate(-4 15 24)">
    <polygon points="18,0 4,24 16,24 10,48 28,20 16,20 22,0" fill="none"/>
  </g>
  <g transform="translate(378,72) rotate(10 23 21)">
    <path d="M2 22L44 4 32 40 20 26z"/><line x1="44" y1="4" x2="20" y2="26"/>
  </g>
  <g transform="translate(453,78) rotate(2 24 21)">
    <path d="M4 2h40a2 2 0 012 2v26a2 2 0 01-2 2H20l-12 10v-10H4a2 2 0 01-2-2V4a2 2 0 012-2z"/><line x1="12" y1="14" x2="36" y2="14"/><line x1="12" y1="20" x2="30" y2="20"/>
  </g>
  <g transform="translate(540,76) rotate(-13 7 25)">
    <path d="M2 38l-2 12 10-4"/><rect x="1" y="10" width="12" height="30" rx="1" transform="rotate(-5 7 25)"/><path d="M4 10l3-8 3 8"/>
  </g>
  <g transform="translate(636,75) rotate(3 18 23)">
    <path d="M2 2a2 2 0 012-2h20l10 10v34a2 2 0 01-2 2H4a2 2 0 01-2-2z"/><path d="M22 0v10h10"/><line x1="8" y1="22" x2="28" y2="22"/><line x1="8" y1="28" x2="28" y2="28"/><line x1="8" y1="34" x2="20" y2="34"/>
  </g>
  <g transform="translate(723,66) rotate(-14 22 18)">
    <path d="M2 12a30 30 0 0140 0" fill="none"/><path d="M10 20a18 18 0 0124 0" fill="none"/><path d="M16 28a8 8 0 0112 0" fill="none"/><circle cx="22" cy="34" r="2"/>
  </g>
  <g transform="translate(-1,149) rotate(-13 19 24)">
    <ellipse cx="19" cy="8" rx="17" ry="7"/><path d="M2 8v32c0 3.9 7.6 7 17 7s17-3.1 17-7V8"/><path d="M2 20c0 3.9 7.6 7 17 7s17-3.1 17-7"/><path d="M2 32c0 3.9 7.6 7 17 7s17-3.1 17-7"/>
  </g>
  <g transform="translate(79,143) rotate(-3 15 24)">
    <circle cx="15" cy="8" r="6"/><circle cx="15" cy="40" r="6"/><circle cx="26" cy="24" r="6"/><line x1="15" y1="14" x2="15" y2="34"/><path d="M15 18c0 8 11 8 11 12"/>
  </g>
  <g transform="translate(165,154) rotate(5 24 11)">
    <circle cx="11" cy="11" r="9"/><circle cx="11" cy="11" r="4"/><line x1="20" y1="11" x2="44" y2="11"/><line x1="40" y1="11" x2="40" y2="18"/><line x1="34" y1="11" x2="34" y2="16"/><line x1="44" y1="8" x2="44" y2="18"/>
  </g>
  <g transform="translate(258,145) rotate(-4 26 19)">
    <polygon points="26,4 52,16 26,28 0,16" fill="none"/><path d="M10 20v12c0 4 7 6 16 6s16-2 16-6V20"/><line x1="46" y1="16" x2="46" y2="34"/><circle cx="46" cy="36" r="2"/>
  </g>
  <g transform="translate(343,146) rotate(6 17 23)">
    <rect x="2" y="6" width="30" height="38" rx="3"/><path d="M10 6v-2a4 4 0 018 0v2"/><rect x="12" y="2" width="10" height="6" rx="2"/><line x1="8" y1="18" x2="26" y2="18"/><line x1="8" y1="24" x2="26" y2="24"/><line x1="8" y1="30" x2="20" y2="30"/><line x1="8" y1="36" x2="22" y2="36"/>
  </g>
  <g transform="translate(425,142) rotate(4 19 22)">
    <ellipse cx="19" cy="28" rx="13" ry="14"/><line x1="19" y1="14" x2="19" y2="42"/><line x1="6" y1="28" x2="32" y2="28"/><circle cx="14" cy="20" r="3"/><circle cx="24" cy="20" r="3"/><line x1="6" y1="22" x2="0" y2="16"/><line x1="32" y1="22" x2="38" y2="16"/><line x1="6" y1="34" x2="0" y2="40"/><line x1="32" y1="34" x2="38" y2="40"/><line x1="12" y1="14" x2="8" y2="6"/><line x1="26" y1="14" x2="30" y2="6"/>
  </g>
  <g transform="translate(507,147) rotate(-10 20 20)">
    <circle cx="20" cy="20" r="18"/><circle cx="20" cy="20" r="2"/><line x1="20" y1="20" x2="20" y2="8"/><line x1="20" y1="20" x2="30" y2="26"/><line x1="20" y1="2" x2="20" y2="5"/><line x1="20" y1="35" x2="20" y2="38"/><line x1="2" y1="20" x2="5" y2="20"/><line x1="35" y1="20" x2="38" y2="20"/>
  </g>
  <g transform="translate(606,152) rotate(-7 27 20)">
    <rect x="4" y="2" width="46" height="28" rx="3"/><rect x="8" y="6" width="38" height="20" rx="1"/><path d="M0 30l6 6h42l6-6"/>
  </g>
  <g transform="translate(689,150) rotate(11 23 19)">
    <rect x="0" y="0" width="46" height="38" rx="4"/><line x1="0" y1="10" x2="46" y2="10"/><circle cx="7" cy="5" r="2"/><circle cx="14" cy="5" r="2"/><circle cx="21" cy="5" r="2"/><polyline points="10,17 18,23 10,29" fill="none"/><line x1="22" y1="29" x2="36" y2="29"/>
  </g>
  <g transform="translate(28,227) rotate(11 20 24)">
    <path d="M12 2c-6 0-8 4-8 8v10c0 3-2 4-4 4 2 0 4 1 4 4v10c0 4 2 8 8 8"/><path d="M28 2c6 0 8 4 8 8v10c0 3 2 4 4 4-2 0-4 1-4 4v10c0 4-2 8-8 8"/>
  </g>
  <g transform="translate(108,230) rotate(-3 24 22)">
    <path d="M24 42v-6"/><path d="M14 8c-8 0-12 6-12 14s4 12 10 14v4"/><path d="M34 8c8 0 12 6 12 14s-4 12-10 14v4"/><path d="M14 18c3-2 7-2 10 0s7 2 10 0"/><path d="M12 28c4-2 8 0 12 2 4 2 8 3 12 1"/>
  </g>
  <g transform="translate(200,222) rotate(-9 18 25)">
    <path d="M18 6a13 13 0 00-7 24v5h14v-5A13 13 0 0018 6z"/><line x1="11" y1="38" x2="25" y2="38"/><line x1="12" y1="42" x2="24" y2="42"/><path d="M14 45a4 4 0 008 0"/><line x1="18" y1="0" x2="18" y2="3"/><line x1="4" y1="19" x2="1" y2="19"/><line x1="32" y1="19" x2="35" y2="19"/><line x1="7" y1="9" x2="5" y2="7"/><line x1="29" y1="9" x2="31" y2="7"/>
  </g>
  <g transform="translate(292,226) rotate(5 25 20)">
    <path d="M25 6c-5-3-12-4-21-2v30c9-2 16-1 21 2"/><path d="M25 6c5-3 12-4 21-2v30c-9-2-16-1-21 2"/><line x1="25" y1="6" x2="25" y2="36"/>
  </g>
  <g transform="translate(382,232) rotate(13 20 22)">
    <path d="M4 14h26v20a6 6 0 01-6 6H10a6 6 0 01-6-6z"/><path d="M30 18h5a5 5 0 010 10h-5"/><path d="M12 8c0-5 4-5 4 0"/><path d="M20 6c0-5 4-5 4 0"/><line x1="0" y1="44" x2="40" y2="44"/>
  </g>
  <g transform="translate(466,224) rotate(-7 22 22)">
    <circle cx="22" cy="22" r="8"/><circle cx="22" cy="22" r="15"/><line x1="22" y1="0" x2="22" y2="7"/><line x1="22" y1="37" x2="22" y2="44"/><line x1="0" y1="22" x2="7" y2="22"/><line x1="37" y1="22" x2="44" y2="22"/><line x1="6" y1="6" x2="11" y2="11"/><line x1="33" y1="33" x2="38" y2="38"/><line x1="6" y1="38" x2="11" y2="33"/><line x1="33" y1="11" x2="38" y2="6"/>
  </g>
  <g transform="translate(541,227) rotate(8 16 27)">
    <path d="M16 4c-5 6-8 16-8 26h-6l4 8h6l2 8 2-8h6l4-8h-6c0-10-3-20-8-26z"/><circle cx="16" cy="22" r="5"/>
  </g>
  <g transform="translate(635,233) rotate(13 21 21)">
    <circle cx="18" cy="18" r="14"/><circle cx="18" cy="18" r="9"/><line x1="28" y1="28" x2="40" y2="40" stroke-linecap="round"/>
  </g>
  <g transform="translate(729,231) rotate(-8 17 22)">
    <rect x="3" y="18" width="28" height="24" rx="4"/><path d="M9 18v-7a8 8 0 0116 0v7"/><circle cx="17" cy="31" r="3"/><line x1="17" y1="34" x2="17" y2="38"/>
  </g>
  <g transform="translate(-4,316) rotate(0 26 17)">
    <path d="M14 30a9 9 0 01-1-18A14 14 0 0140 8a8 8 0 012 16z"/>
  </g>
  <g transform="translate(74,301) rotate(12 15 24)">
    <polygon points="18,0 4,24 16,24 10,48 28,20 16,20 22,0" fill="none"/>
  </g>
  <g transform="translate(160,304) rotate(5 23 21)">
    <path d="M2 22L44 4 32 40 20 26z"/><line x1="44" y1="4" x2="20" y2="26"/>
  </g>
  <g transform="translate(252,313) rotate(4 24 21)">
    <path d="M4 2h40a2 2 0 012 2v26a2 2 0 01-2 2H20l-12 10v-10H4a2 2 0 01-2-2V4a2 2 0 012-2z"/><line x1="12" y1="14" x2="36" y2="14"/><line x1="12" y1="20" x2="30" y2="20"/>
  </g>
  <g transform="translate(334,312) rotate(-3 7 25)">
    <path d="M2 38l-2 12 10-4"/><rect x="1" y="10" width="12" height="30" rx="1" transform="rotate(-5 7 25)"/><path d="M4 10l3-8 3 8"/>
  </g>
  <g transform="translate(431,316) rotate(-7 18 23)">
    <path d="M2 2a2 2 0 012-2h20l10 10v34a2 2 0 01-2 2H4a2 2 0 01-2-2z"/><path d="M22 0v10h10"/><line x1="8" y1="22" x2="28" y2="22"/><line x1="8" y1="28" x2="28" y2="28"/><line x1="8" y1="34" x2="20" y2="34"/>
  </g>
  <g transform="translate(502,303) rotate(6 22 18)">
    <path d="M2 12a30 30 0 0140 0" fill="none"/><path d="M10 20a18 18 0 0124 0" fill="none"/><path d="M16 28a8 8 0 0112 0" fill="none"/><circle cx="22" cy="34" r="2"/>
  </g>
  <g transform="translate(600,310) rotate(-12 19 24)">
    <ellipse cx="19" cy="8" rx="17" ry="7"/><path d="M2 8v32c0 3.9 7.6 7 17 7s17-3.1 17-7V8"/><path d="M2 20c0 3.9 7.6 7 17 7s17-3.1 17-7"/><path d="M2 32c0 3.9 7.6 7 17 7s17-3.1 17-7"/>
  </g>
  <g transform="translate(691,313) rotate(-10 15 24)">
    <circle cx="15" cy="8" r="6"/><circle cx="15" cy="40" r="6"/><circle cx="26" cy="24" r="6"/><line x1="15" y1="14" x2="15" y2="34"/><path d="M15 18c0 8 11 8 11 12"/>
  </g>
  <g transform="translate(41,380) rotate(15 24 11)">
    <circle cx="11" cy="11" r="9"/><circle cx="11" cy="11" r="4"/><line x1="20" y1="11" x2="44" y2="11"/><line x1="40" y1="11" x2="40" y2="18"/><line x1="34" y1="11" x2="34" y2="16"/><line x1="44" y1="8" x2="44" y2="18"/>
  </g>
  <g transform="translate(115,396) rotate(9 26 19)">
    <polygon points="26,4 52,16 26,28 0,16" fill="none"/><path d="M10 20v12c0 4 7 6 16 6s16-2 16-6V20"/><line x1="46" y1="16" x2="46" y2="34"/><circle cx="46" cy="36" r="2"/>
  </g>
  <g transform="translate(197,396) rotate(14 17 23)">
    <rect x="2" y="6" width="30" height="38" rx="3"/><path d="M10 6v-2a4 4 0 018 0v2"/><rect x="12" y="2" width="10" height="6" rx="2"/><line x1="8" y1="18" x2="26" y2="18"/><line x1="8" y1="24" x2="26" y2="24"/><line x1="8" y1="30" x2="20" y2="30"/><line x1="8" y1="36" x2="22" y2="36"/>
  </g>
  <g transform="translate(285,389) rotate(11 19 22)">
    <ellipse cx="19" cy="28" rx="13" ry="14"/><line x1="19" y1="14" x2="19" y2="42"/><line x1="6" y1="28" x2="32" y2="28"/><circle cx="14" cy="20" r="3"/><circle cx="24" cy="20" r="3"/><line x1="6" y1="22" x2="0" y2="16"/><line x1="32" y1="22" x2="38" y2="16"/><line x1="6" y1="34" x2="0" y2="40"/><line x1="32" y1="34" x2="38" y2="40"/><line x1="12" y1="14" x2="8" y2="6"/><line x1="26" y1="14" x2="30" y2="6"/>
  </g>
  <g transform="translate(383,386) rotate(-11 20 20)">
    <circle cx="20" cy="20" r="18"/><circle cx="20" cy="20" r="2"/><line x1="20" y1="20" x2="20" y2="8"/><line x1="20" y1="20" x2="30" y2="26"/><line x1="20" y1="2" x2="20" y2="5"/><line x1="20" y1="35" x2="20" y2="38"/><line x1="2" y1="20" x2="5" y2="20"/><line x1="35" y1="20" x2="38" y2="20"/>
  </g>
  <g transform="translate(463,385) rotate(2 27 20)">
    <rect x="4" y="2" width="46" height="28" rx="3"/><rect x="8" y="6" width="38" height="20" rx="1"/><path d="M0 30l6 6h42l6-6"/>
  </g>
  <g transform="translate(553,380) rotate(4 23 19)">
    <rect x="0" y="0" width="46" height="38" rx="4"/><line x1="0" y1="10" x2="46" y2="10"/><circle cx="7" cy="5" r="2"/><circle cx="14" cy="5" r="2"/><circle cx="21" cy="5" r="2"/><polyline points="10,17 18,23 10,29" fill="none"/><line x1="22" y1="29" x2="36" y2="29"/>
  </g>
  <g transform="translate(637,395) rotate(-15 20 24)">
    <path d="M12 2c-6 0-8 4-8 8v10c0 3-2 4-4 4 2 0 4 1 4 4v10c0 4 2 8 8 8"/><path d="M28 2c6 0 8 4 8 8v10c0 3 2 4 4 4-2 0-4 1-4 4v10c0 4-2 8-8 8"/>
  </g>
  <g transform="translate(720,391) rotate(13 24 22)">
    <path d="M24 42v-6"/><path d="M14 8c-8 0-12 6-12 14s4 12 10 14v4"/><path d="M34 8c8 0 12 6 12 14s-4 12-10 14v4"/><path d="M14 18c3-2 7-2 10 0s7 2 10 0"/><path d="M12 28c4-2 8 0 12 2 4 2 8 3 12 1"/>
  </g>
  <g transform="translate(1,467) rotate(-14 18 25)">
    <path d="M18 6a13 13 0 00-7 24v5h14v-5A13 13 0 0018 6z"/><line x1="11" y1="38" x2="25" y2="38"/><line x1="12" y1="42" x2="24" y2="42"/><path d="M14 45a4 4 0 008 0"/><line x1="18" y1="0" x2="18" y2="3"/><line x1="4" y1="19" x2="1" y2="19"/><line x1="32" y1="19" x2="35" y2="19"/><line x1="7" y1="9" x2="5" y2="7"/><line x1="29" y1="9" x2="31" y2="7"/>
  </g>
  <g transform="translate(79,462) rotate(-13 25 20)">
    <path d="M25 6c-5-3-12-4-21-2v30c9-2 16-1 21 2"/><path d="M25 6c5-3 12-4 21-2v30c-9-2-16-1-21 2"/><line x1="25" y1="6" x2="25" y2="36"/>
  </g>
  <g transform="translate(172,462) rotate(9 20 22)">
    <path d="M4 14h26v20a6 6 0 01-6 6H10a6 6 0 01-6-6z"/><path d="M30 18h5a5 5 0 010 10h-5"/><path d="M12 8c0-5 4-5 4 0"/><path d="M20 6c0-5 4-5 4 0"/><line x1="0" y1="44" x2="40" y2="44"/>
  </g>
  <g transform="translate(251,464) rotate(6 22 22)">
    <circle cx="22" cy="22" r="8"/><circle cx="22" cy="22" r="15"/><line x1="22" y1="0" x2="22" y2="7"/><line x1="22" y1="37" x2="22" y2="44"/><line x1="0" y1="22" x2="7" y2="22"/><line x1="37" y1="22" x2="44" y2="22"/><line x1="6" y1="6" x2="11" y2="11"/><line x1="33" y1="33" x2="38" y2="38"/><line x1="6" y1="38" x2="11" y2="33"/><line x1="33" y1="11" x2="38" y2="6"/>
  </g>
  <g transform="translate(347,465) rotate(-7 16 27)">
    <path d="M16 4c-5 6-8 16-8 26h-6l4 8h6l2 8 2-8h6l4-8h-6c0-10-3-20-8-26z"/><circle cx="16" cy="22" r="5"/>
  </g>
  <g transform="translate(433,473) rotate(15 21 21)">
    <circle cx="18" cy="18" r="14"/><circle cx="18" cy="18" r="9"/><line x1="28" y1="28" x2="40" y2="40" stroke-linecap="round"/>
  </g>
  <g transform="translate(508,466) rotate(7 17 22)">
    <rect x="3" y="18" width="28" height="24" rx="4"/><path d="M9 18v-7a8 8 0 0116 0v7"/><circle cx="17" cy="31" r="3"/><line x1="17" y1="34" x2="17" y2="38"/>
  </g>
  <g transform="translate(601,472) rotate(6 26 17)">
    <path d="M14 30a9 9 0 01-1-18A14 14 0 0140 8a8 8 0 012 16z"/>
  </g>
  <g transform="translate(693,474) rotate(13 15 24)">
    <polygon points="18,0 4,24 16,24 10,48 28,20 16,20 22,0" fill="none"/>
  </g>
  <g transform="translate(43,554) rotate(-12 23 21)">
    <path d="M2 22L44 4 32 40 20 26z"/><line x1="44" y1="4" x2="20" y2="26"/>
  </g>
  <g transform="translate(114,547) rotate(-13 24 21)">
    <path d="M4 2h40a2 2 0 012 2v26a2 2 0 01-2 2H20l-12 10v-10H4a2 2 0 01-2-2V4a2 2 0 012-2z"/><line x1="12" y1="14" x2="36" y2="14"/><line x1="12" y1="20" x2="30" y2="20"/>
  </g>
  <g transform="translate(202,540) rotate(3 7 25)">
    <path d="M2 38l-2 12 10-4"/><rect x="1" y="10" width="12" height="30" rx="1" transform="rotate(-5 7 25)"/><path d="M4 10l3-8 3 8"/>
  </g>
  <g transform="translate(289,547) rotate(-15 18 23)">
    <path d="M2 2a2 2 0 012-2h20l10 10v34a2 2 0 01-2 2H4a2 2 0 01-2-2z"/><path d="M22 0v10h10"/><line x1="8" y1="22" x2="28" y2="22"/><line x1="8" y1="28" x2="28" y2="28"/><line x1="8" y1="34" x2="20" y2="34"/>
  </g>
  <g transform="translate(369,541) rotate(-8 22 18)">
    <path d="M2 12a30 30 0 0140 0" fill="none"/><path d="M10 20a18 18 0 0124 0" fill="none"/><path d="M16 28a8 8 0 0112 0" fill="none"/><circle cx="22" cy="34" r="2"/>
  </g>
  <g transform="translate(454,541) rotate(12 19 24)">
    <ellipse cx="19" cy="8" rx="17" ry="7"/><path d="M2 8v32c0 3.9 7.6 7 17 7s17-3.1 17-7V8"/><path d="M2 20c0 3.9 7.6 7 17 7s17-3.1 17-7"/><path d="M2 32c0 3.9 7.6 7 17 7s17-3.1 17-7"/>
  </g>
  <g transform="translate(547,542) rotate(1 15 24)">
    <circle cx="15" cy="8" r="6"/><circle cx="15" cy="40" r="6"/><circle cx="26" cy="24" r="6"/><line x1="15" y1="14" x2="15" y2="34"/><path d="M15 18c0 8 11 8 11 12"/>
  </g>
  <g transform="translate(634,548) rotate(6 24 11)">
    <circle cx="11" cy="11" r="9"/><circle cx="11" cy="11" r="4"/><line x1="20" y1="11" x2="44" y2="11"/><line x1="40" y1="11" x2="40" y2="18"/><line x1="34" y1="11" x2="34" y2="16"/><line x1="44" y1="8" x2="44" y2="18"/>
  </g>
  <g transform="translate(732,546) rotate(2 26 19)">
    <polygon points="26,4 52,16 26,28 0,16" fill="none"/><path d="M10 20v12c0 4 7 6 16 6s16-2 16-6V20"/><line x1="46" y1="16" x2="46" y2="34"/><circle cx="46" cy="36" r="2"/>
  </g>
  <g transform="translate(-4,642) rotate(-8 17 23)">
    <rect x="2" y="6" width="30" height="38" rx="3"/><path d="M10 6v-2a4 4 0 018 0v2"/><rect x="12" y="2" width="10" height="6" rx="2"/><line x1="8" y1="18" x2="26" y2="18"/><line x1="8" y1="24" x2="26" y2="24"/><line x1="8" y1="30" x2="20" y2="30"/><line x1="8" y1="36" x2="22" y2="36"/>
  </g>
  <g transform="translate(87,640) rotate(-9 19 22)">
    <ellipse cx="19" cy="28" rx="13" ry="14"/><line x1="19" y1="14" x2="19" y2="42"/><line x1="6" y1="28" x2="32" y2="28"/><circle cx="14" cy="20" r="3"/><circle cx="24" cy="20" r="3"/><line x1="6" y1="22" x2="0" y2="16"/><line x1="32" y1="22" x2="38" y2="16"/><line x1="6" y1="34" x2="0" y2="40"/><line x1="32" y1="34" x2="38" y2="40"/><line x1="12" y1="14" x2="8" y2="6"/><line x1="26" y1="14" x2="30" y2="6"/>
  </g>
  <g transform="translate(160,630) rotate(6 20 20)">
    <circle cx="20" cy="20" r="18"/><circle cx="20" cy="20" r="2"/><line x1="20" y1="20" x2="20" y2="8"/><line x1="20" y1="20" x2="30" y2="26"/><line x1="20" y1="2" x2="20" y2="5"/><line x1="20" y1="35" x2="20" y2="38"/><line x1="2" y1="20" x2="5" y2="20"/><line x1="35" y1="20" x2="38" y2="20"/>
  </g>
  <g transform="translate(260,638) rotate(-2 27 20)">
    <rect x="4" y="2" width="46" height="28" rx="3"/><rect x="8" y="6" width="38" height="20" rx="1"/><path d="M0 30l6 6h42l6-6"/>
  </g>
  <g transform="translate(345,641) rotate(12 23 19)">
    <rect x="0" y="0" width="46" height="38" rx="4"/><line x1="0" y1="10" x2="46" y2="10"/><circle cx="7" cy="5" r="2"/><circle cx="14" cy="5" r="2"/><circle cx="21" cy="5" r="2"/><polyline points="10,17 18,23 10,29" fill="none"/><line x1="22" y1="29" x2="36" y2="29"/>
  </g>
  <g transform="translate(418,630) rotate(-14 20 24)">
    <path d="M12 2c-6 0-8 4-8 8v10c0 3-2 4-4 4 2 0 4 1 4 4v10c0 4 2 8 8 8"/><path d="M28 2c6 0 8 4 8 8v10c0 3 2 4 4 4-2 0-4 1-4 4v10c0 4-2 8-8 8"/>
  </g>
  <g transform="translate(514,637) rotate(10 24 22)">
    <path d="M24 42v-6"/><path d="M14 8c-8 0-12 6-12 14s4 12 10 14v4"/><path d="M34 8c8 0 12 6 12 14s-4 12-10 14v4"/><path d="M14 18c3-2 7-2 10 0s7 2 10 0"/><path d="M12 28c4-2 8 0 12 2 4 2 8 3 12 1"/>
  </g>
  <g transform="translate(595,634) rotate(-9 18 25)">
    <path d="M18 6a13 13 0 00-7 24v5h14v-5A13 13 0 0018 6z"/><line x1="11" y1="38" x2="25" y2="38"/><line x1="12" y1="42" x2="24" y2="42"/><path d="M14 45a4 4 0 008 0"/><line x1="18" y1="0" x2="18" y2="3"/><line x1="4" y1="19" x2="1" y2="19"/><line x1="32" y1="19" x2="35" y2="19"/><line x1="7" y1="9" x2="5" y2="7"/><line x1="29" y1="9" x2="31" y2="7"/>
  </g>
  <g transform="translate(688,641) rotate(-11 25 20)">
    <path d="M25 6c-5-3-12-4-21-2v30c9-2 16-1 21 2"/><path d="M25 6c5-3 12-4 21-2v30c-9-2-16-1-21 2"/><line x1="25" y1="6" x2="25" y2="36"/>
  </g>
  <g transform="translate(40,717) rotate(-7 20 22)">
    <path d="M4 14h26v20a6 6 0 01-6 6H10a6 6 0 01-6-6z"/><path d="M30 18h5a5 5 0 010 10h-5"/><path d="M12 8c0-5 4-5 4 0"/><path d="M20 6c0-5 4-5 4 0"/><line x1="0" y1="44" x2="40" y2="44"/>
  </g>
  <g transform="translate(121,719) rotate(12 22 22)">
    <circle cx="22" cy="22" r="8"/><circle cx="22" cy="22" r="15"/><line x1="22" y1="0" x2="22" y2="7"/><line x1="22" y1="37" x2="22" y2="44"/><line x1="0" y1="22" x2="7" y2="22"/><line x1="37" y1="22" x2="44" y2="22"/><line x1="6" y1="6" x2="11" y2="11"/><line x1="33" y1="33" x2="38" y2="38"/><line x1="6" y1="38" x2="11" y2="33"/><line x1="33" y1="11" x2="38" y2="6"/>
  </g>
  <g transform="translate(194,726) rotate(10 16 27)">
    <path d="M16 4c-5 6-8 16-8 26h-6l4 8h6l2 8 2-8h6l4-8h-6c0-10-3-20-8-26z"/><circle cx="16" cy="22" r="5"/>
  </g>
  <g transform="translate(285,713) rotate(5 21 21)">
    <circle cx="18" cy="18" r="14"/><circle cx="18" cy="18" r="9"/><line x1="28" y1="28" x2="40" y2="40" stroke-linecap="round"/>
  </g>
  <g transform="translate(367,714) rotate(14 17 22)">
    <rect x="3" y="18" width="28" height="24" rx="4"/><path d="M9 18v-7a8 8 0 0116 0v7"/><circle cx="17" cy="31" r="3"/><line x1="17" y1="34" x2="17" y2="38"/>
  </g>
  <g transform="translate(459,717) rotate(-2 26 17)">
    <path d="M14 30a9 9 0 01-1-18A14 14 0 0140 8a8 8 0 012 16z"/>
  </g>
  <g transform="translate(552,727) rotate(-9 15 24)">
    <polygon points="18,0 4,24 16,24 10,48 28,20 16,20 22,0" fill="none"/>
  </g>
  <g transform="translate(639,713) rotate(-10 23 21)">
    <path d="M2 22L44 4 32 40 20 26z"/><line x1="44" y1="4" x2="20" y2="26"/>
  </g>
  <g transform="translate(729,712) rotate(-3 24 21)">
    <path d="M4 2h40a2 2 0 012 2v26a2 2 0 01-2 2H20l-12 10v-10H4a2 2 0 01-2-2V4a2 2 0 012-2z"/><line x1="12" y1="14" x2="36" y2="14"/><line x1="12" y1="20" x2="30" y2="20"/>
  </g>
  <g transform="translate(0,806) rotate(-6 7 25)">
    <path d="M2 38l-2 12 10-4"/><rect x="1" y="10" width="12" height="30" rx="1" transform="rotate(-5 7 25)"/><path d="M4 10l3-8 3 8"/>
  </g>
  <g transform="translate(85,807) rotate(-11 18 23)">
    <path d="M2 2a2 2 0 012-2h20l10 10v34a2 2 0 01-2 2H4a2 2 0 01-2-2z"/><path d="M22 0v10h10"/><line x1="8" y1="22" x2="28" y2="22"/><line x1="8" y1="28" x2="28" y2="28"/><line x1="8" y1="34" x2="20" y2="34"/>
  </g>
  <g transform="translate(163,801) rotate(-9 22 18)">
    <path d="M2 12a30 30 0 0140 0" fill="none"/><path d="M10 20a18 18 0 0124 0" fill="none"/><path d="M16 28a8 8 0 0112 0" fill="none"/><circle cx="22" cy="34" r="2"/>
  </g>
  <g transform="translate(248,793) rotate(8 19 24)">
    <ellipse cx="19" cy="8" rx="17" ry="7"/><path d="M2 8v32c0 3.9 7.6 7 17 7s17-3.1 17-7V8"/><path d="M2 20c0 3.9 7.6 7 17 7s17-3.1 17-7"/><path d="M2 32c0 3.9 7.6 7 17 7s17-3.1 17-7"/>
  </g>
  <g transform="translate(342,793) rotate(-14 15 24)">
    <circle cx="15" cy="8" r="6"/><circle cx="15" cy="40" r="6"/><circle cx="26" cy="24" r="6"/><line x1="15" y1="14" x2="15" y2="34"/><path d="M15 18c0 8 11 8 11 12"/>
  </g>
  <g transform="translate(432,808) rotate(14 24 11)">
    <circle cx="11" cy="11" r="9"/><circle cx="11" cy="11" r="4"/><line x1="20" y1="11" x2="44" y2="11"/><line x1="40" y1="11" x2="40" y2="18"/><line x1="34" y1="11" x2="34" y2="16"/><line x1="44" y1="8" x2="44" y2="18"/>
  </g>
  <g transform="translate(518,797) rotate(-14 26 19)">
    <polygon points="26,4 52,16 26,28 0,16" fill="none"/><path d="M10 20v12c0 4 7 6 16 6s16-2 16-6V20"/><line x1="46" y1="16" x2="46" y2="34"/><circle cx="46" cy="36" r="2"/>
  </g>
  <g transform="translate(608,794) rotate(12 17 23)">
    <rect x="2" y="6" width="30" height="38" rx="3"/><path d="M10 6v-2a4 4 0 018 0v2"/><rect x="12" y="2" width="10" height="6" rx="2"/><line x1="8" y1="18" x2="26" y2="18"/><line x1="8" y1="24" x2="26" y2="24"/><line x1="8" y1="30" x2="20" y2="30"/><line x1="8" y1="36" x2="22" y2="36"/>
  </g>
  <g transform="translate(687,794) rotate(4 19 22)">
    <ellipse cx="19" cy="28" rx="13" ry="14"/><line x1="19" y1="14" x2="19" y2="42"/><line x1="6" y1="28" x2="32" y2="28"/><circle cx="14" cy="20" r="3"/><circle cx="24" cy="20" r="3"/><line x1="6" y1="22" x2="0" y2="16"/><line x1="32" y1="22" x2="38" y2="16"/><line x1="6" y1="34" x2="0" y2="40"/><line x1="32" y1="34" x2="38" y2="40"/><line x1="12" y1="14" x2="8" y2="6"/><line x1="26" y1="14" x2="30" y2="6"/>
  </g>

  <!-- Filler stars, dots, diamonds -->
  <g transform="translate(69,691) rotate(-5) scale(0.66)"><circle cx="2" cy="2" r="1.8"/></g>
  <g transform="translate(583,252) rotate(8) scale(0.62)"><path d="M4 0l1.3 2.6 2.7.4-2 2 .5 2.8L4 6.5 1.5 7.8 2 5l-2-2 2.7-.4z"/></g>
  <g transform="translate(83,429) rotate(6) scale(0.86)"><path d="M4 0l1.3 2.6 2.7.4-2 2 .5 2.8L4 6.5 1.5 7.8 2 5l-2-2 2.7-.4z"/></g>
  <g transform="translate(267,209) rotate(-15) scale(0.73)"><path d="M4 0l4 4-4 4-4-4z"/></g>
  <g transform="translate(134,687) rotate(-1) scale(0.76)"><path d="M4 0l4 4-4 4-4-4z"/></g>
  <g transform="translate(769,74) rotate(-1) scale(0.91)"><path d="M4 0l1.3 2.6 2.7.4-2 2 .5 2.8L4 6.5 1.5 7.8 2 5l-2-2 2.7-.4z"/></g>
  <g transform="translate(576,102) rotate(4) scale(0.71)"><path d="M4 0l1.3 2.6 2.7.4-2 2 .5 2.8L4 6.5 1.5 7.8 2 5l-2-2 2.7-.4z"/></g>
  <g transform="translate(271,135) rotate(26) scale(0.63)"><path d="M4 0l4 4-4 4-4-4z"/></g>
  <g transform="translate(250,378) rotate(-20) scale(0.82)"><path d="M4 0l4 4-4 4-4-4z"/></g>
  <g transform="translate(556,720) rotate(9) scale(1.09)"><path d="M4 0l4 4-4 4-4-4z"/></g>
  <g transform="translate(567,306) rotate(30) scale(1.04)"><path d="M4 0l1.3 2.6 2.7.4-2 2 .5 2.8L4 6.5 1.5 7.8 2 5l-2-2 2.7-.4z"/></g>
  <g transform="translate(270,118) rotate(17) scale(0.88)"><path d="M4 0l1.3 2.6 2.7.4-2 2 .5 2.8L4 6.5 1.5 7.8 2 5l-2-2 2.7-.4z"/></g>
  <g transform="translate(278,288) rotate(-17) scale(0.96)"><path d="M4 0l1.3 2.6 2.7.4-2 2 .5 2.8L4 6.5 1.5 7.8 2 5l-2-2 2.7-.4z"/></g>
  <g transform="translate(208,703) rotate(2) scale(0.84)"><path d="M4 0l4 4-4 4-4-4z"/></g>
  <g transform="translate(789,133) rotate(-20) scale(0.97)"><path d="M4 0l4 4-4 4-4-4z"/></g>
  <g transform="translate(564,722) rotate(5) scale(0.60)"><path d="M4 0l1.3 2.6 2.7.4-2 2 .5 2.8L4 6.5 1.5 7.8 2 5l-2-2 2.7-.4z"/></g>
  <g transform="translate(77,707) rotate(4) scale(0.62)"><circle cx="2" cy="2" r="1.8"/></g>
  <g transform="translate(378,596) rotate(-21) scale(0.81)"><path d="M4 0l1.3 2.6 2.7.4-2 2 .5 2.8L4 6.5 1.5 7.8 2 5l-2-2 2.7-.4z"/></g>
  <g transform="translate(42,315) rotate(27) scale(1.07)"><path d="M4 0l4 4-4 4-4-4z"/></g>
  <g transform="translate(40,366) rotate(13) scale(0.72)"><circle cx="2" cy="2" r="1.8"/></g>
  <g transform="translate(105,362) rotate(26) scale(1.04)"><path d="M4 0l1.3 2.6 2.7.4-2 2 .5 2.8L4 6.5 1.5 7.8 2 5l-2-2 2.7-.4z"/></g>
  <g transform="translate(635,767) rotate(29) scale(1.06)"><circle cx="2" cy="2" r="1.8"/></g>
  <g transform="translate(181,422) rotate(-19) scale(0.97)"><path d="M4 0l1.3 2.6 2.7.4-2 2 .5 2.8L4 6.5 1.5 7.8 2 5l-2-2 2.7-.4z"/></g>
  <g transform="translate(421,821) rotate(-13) scale(0.68)"><circle cx="2" cy="2" r="1.8"/></g>
  <g transform="translate(718,110) rotate(25) scale(0.62)"><path d="M4 0l1.3 2.6 2.7.4-2 2 .5 2.8L4 6.5 1.5 7.8 2 5l-2-2 2.7-.4z"/></g>
  <g transform="translate(471,358) rotate(22) scale(1.00)"><path d="M4 0l4 4-4 4-4-4z"/></g>
  <g transform="translate(336,285) rotate(19) scale(0.74)"><path d="M4 0l1.3 2.6 2.7.4-2 2 .5 2.8L4 6.5 1.5 7.8 2 5l-2-2 2.7-.4z"/></g>
  <g transform="translate(656,521) rotate(13) scale(1.09)"><path d="M4 0l1.3 2.6 2.7.4-2 2 .5 2.8L4 6.5 1.5 7.8 2 5l-2-2 2.7-.4z"/></g>
  <g transform="translate(549,339) rotate(-23) scale(1.04)"><path d="M4 0l1.3 2.6 2.7.4-2 2 .5 2.8L4 6.5 1.5 7.8 2 5l-2-2 2.7-.4z"/></g>
  <g transform="translate(594,271) rotate(-24) scale(0.90)"><path d="M4 0l1.3 2.6 2.7.4-2 2 .5 2.8L4 6.5 1.5 7.8 2 5l-2-2 2.7-.4z"/></g>
  <g transform="translate(353,746) rotate(-3) scale(0.90)"><path d="M4 0l4 4-4 4-4-4z"/></g>
  <g transform="translate(523,118) rotate(27) scale(0.89)"><path d="M4 0l1.3 2.6 2.7.4-2 2 .5 2.8L4 6.5 1.5 7.8 2 5l-2-2 2.7-.4z"/></g>
  <g transform="translate(725,446) rotate(3) scale(1.06)"><path d="M4 0l1.3 2.6 2.7.4-2 2 .5 2.8L4 6.5 1.5 7.8 2 5l-2-2 2.7-.4z"/></g>
  <g transform="translate(551,703) rotate(-7) scale(0.82)"><circle cx="2" cy="2" r="1.8"/></g>
  <g transform="translate(680,338) rotate(-10) scale(0.93)"><path d="M4 0l1.3 2.6 2.7.4-2 2 .5 2.8L4 6.5 1.5 7.8 2 5l-2-2 2.7-.4z"/></g>
  <g transform="translate(307,519) rotate(12) scale(0.80)"><path d="M4 0l4 4-4 4-4-4z"/></g>
  <g transform="translate(412,713) rotate(5) scale(0.66)"><path d="M4 0l4 4-4 4-4-4z"/></g>
  <g transform="translate(430,680) rotate(13) scale(0.97)"><path d="M4 0l1.3 2.6 2.7.4-2 2 .5 2.8L4 6.5 1.5 7.8 2 5l-2-2 2.7-.4z"/></g>
  <g transform="translate(178,630) rotate(-11) scale(0.80)"><path d="M4 0l1.3 2.6 2.7.4-2 2 .5 2.8L4 6.5 1.5 7.8 2 5l-2-2 2.7-.4z"/></g>
  <g transform="translate(0,311) rotate(-17) scale(0.81)"><path d="M4 0l4 4-4 4-4-4z"/></g>
  <g transform="translate(593,621) rotate(-1) scale(0.82)"><path d="M4 0l4 4-4 4-4-4z"/></g>
  <g transform="translate(691,218) rotate(0) scale(1.00)"><path d="M4 0l1.3 2.6 2.7.4-2 2 .5 2.8L4 6.5 1.5 7.8 2 5l-2-2 2.7-.4z"/></g>
  <g transform="translate(753,173) rotate(-12) scale(0.86)"><path d="M4 0l1.3 2.6 2.7.4-2 2 .5 2.8L4 6.5 1.5 7.8 2 5l-2-2 2.7-.4z"/></g>
  <g transform="translate(648,634) rotate(-25) scale(1.01)"><path d="M4 0l4 4-4 4-4-4z"/></g>
  <g transform="translate(769,240) rotate(-16) scale(1.00)"><path d="M4 0l4 4-4 4-4-4z"/></g>
  <g transform="translate(150,25) rotate(-15) scale(1.09)"><path d="M4 0l1.3 2.6 2.7.4-2 2 .5 2.8L4 6.5 1.5 7.8 2 5l-2-2 2.7-.4z"/></g>
  <g transform="translate(625,870) rotate(-1) scale(0.81)"><path d="M4 0l1.3 2.6 2.7.4-2 2 .5 2.8L4 6.5 1.5 7.8 2 5l-2-2 2.7-.4z"/></g>
  <g transform="translate(644,589) rotate(15) scale(0.95)"><circle cx="2" cy="2" r="1.8"/></g>
  <g transform="translate(249,151) rotate(27) scale(0.98)"><path d="M4 0l1.3 2.6 2.7.4-2 2 .5 2.8L4 6.5 1.5 7.8 2 5l-2-2 2.7-.4z"/></g>
  <g transform="translate(788,109) rotate(-16) scale(0.69)"><path d="M4 0l1.3 2.6 2.7.4-2 2 .5 2.8L4 6.5 1.5 7.8 2 5l-2-2 2.7-.4z"/></g>
  <g transform="translate(712,530) rotate(-27) scale(0.88)"><path d="M4 0l1.3 2.6 2.7.4-2 2 .5 2.8L4 6.5 1.5 7.8 2 5l-2-2 2.7-.4z"/></g>
  <g transform="translate(124,467) rotate(21) scale(0.83)"><circle cx="2" cy="2" r="1.8"/></g>
  <g transform="translate(773,453) rotate(22) scale(0.96)"><path d="M4 0l1.3 2.6 2.7.4-2 2 .5 2.8L4 6.5 1.5 7.8 2 5l-2-2 2.7-.4z"/></g>
  <g transform="translate(516,436) rotate(-2) scale(1.05)"><path d="M4 0l1.3 2.6 2.7.4-2 2 .5 2.8L4 6.5 1.5 7.8 2 5l-2-2 2.7-.4z"/></g>
  <g transform="translate(761,882) rotate(-2) scale(0.73)"><path d="M4 0l1.3 2.6 2.7.4-2 2 .5 2.8L4 6.5 1.5 7.8 2 5l-2-2 2.7-.4z"/></g>
  <g transform="translate(253,860) rotate(19) scale(0.99)"><path d="M4 0l4 4-4 4-4-4z"/></g>
  <g transform="translate(496,641) rotate(-13) scale(0.82)"><circle cx="2" cy="2" r="1.8"/></g>
  <g transform="translate(730,292) rotate(-13) scale(0.77)"><circle cx="2" cy="2" r="1.8"/></g>
  <g transform="translate(141,154) rotate(-6) scale(0.95)"><circle cx="2" cy="2" r="1.8"/></g>
  <g transform="translate(723,219) rotate(-4) scale(0.80)"><path d="M4 0l1.3 2.6 2.7.4-2 2 .5 2.8L4 6.5 1.5 7.8 2 5l-2-2 2.7-.4z"/></g>
  <g transform="translate(555,477) rotate(-27) scale(0.70)"><path d="M4 0l1.3 2.6 2.7.4-2 2 .5 2.8L4 6.5 1.5 7.8 2 5l-2-2 2.7-.4z"/></g>
  <g transform="translate(430,398) rotate(30) scale(0.95)"><path d="M4 0l1.3 2.6 2.7.4-2 2 .5 2.8L4 6.5 1.5 7.8 2 5l-2-2 2.7-.4z"/></g>
  <g transform="translate(783,589) rotate(0) scale(0.60)"><path d="M4 0l1.3 2.6 2.7.4-2 2 .5 2.8L4 6.5 1.5 7.8 2 5l-2-2 2.7-.4z"/></g>
  <g transform="translate(360,305) rotate(24) scale(1.05)"><path d="M4 0l1.3 2.6 2.7.4-2 2 .5 2.8L4 6.5 1.5 7.8 2 5l-2-2 2.7-.4z"/></g>
  <g transform="translate(429,551) rotate(21) scale(0.90)"><path d="M4 0l1.3 2.6 2.7.4-2 2 .5 2.8L4 6.5 1.5 7.8 2 5l-2-2 2.7-.4z"/></g>
  <g transform="translate(225,499) rotate(-13) scale(0.82)"><circle cx="2" cy="2" r="1.8"/></g>
  <g transform="translate(29,398) rotate(12) scale(0.94)"><path d="M4 0l4 4-4 4-4-4z"/></g>
  <g transform="translate(414,741) rotate(23) scale(0.83)"><circle cx="2" cy="2" r="1.8"/></g>
  <g transform="translate(130,637) rotate(-29) scale(1.05)"><path d="M4 0l1.3 2.6 2.7.4-2 2 .5 2.8L4 6.5 1.5 7.8 2 5l-2-2 2.7-.4z"/></g>
  <g transform="translate(606,577) rotate(-25) scale(0.92)"><path d="M4 0l1.3 2.6 2.7.4-2 2 .5 2.8L4 6.5 1.5 7.8 2 5l-2-2 2.7-.4z"/></g>
  <g transform="translate(138,887) rotate(-19) scale(0.63)"><path d="M4 0l1.3 2.6 2.7.4-2 2 .5 2.8L4 6.5 1.5 7.8 2 5l-2-2 2.7-.4z"/></g>
  <g transform="translate(388,335) rotate(-1) scale(0.76)"><circle cx="2" cy="2" r="1.8"/></g>
  <g transform="translate(779,388) rotate(18) scale(1.08)"><path d="M4 0l4 4-4 4-4-4z"/></g>
  <g transform="translate(431,258) rotate(0) scale(0.61)"><path d="M4 0l1.3 2.6 2.7.4-2 2 .5 2.8L4 6.5 1.5 7.8 2 5l-2-2 2.7-.4z"/></g>
  <g transform="translate(552,53) rotate(-16) scale(0.93)"><path d="M4 0l4 4-4 4-4-4z"/></g>
  <g transform="translate(667,41) rotate(30) scale(0.72)"><path d="M4 0l1.3 2.6 2.7.4-2 2 .5 2.8L4 6.5 1.5 7.8 2 5l-2-2 2.7-.4z"/></g>
  <g transform="translate(20,636) rotate(-15) scale(0.66)"><circle cx="2" cy="2" r="1.8"/></g>
  <g transform="translate(685,117) rotate(30) scale(0.71)"><path d="M4 0l1.3 2.6 2.7.4-2 2 .5 2.8L4 6.5 1.5 7.8 2 5l-2-2 2.7-.4z"/></g>
  <g transform="translate(716,262) rotate(-20) scale(0.90)"><path d="M4 0l4 4-4 4-4-4z"/></g>
  <g transform="translate(117,796) rotate(-11) scale(0.65)"><circle cx="2" cy="2" r="1.8"/></g>
  <g transform="translate(589,693) rotate(-5) scale(1.07)"><path d="M4 0l1.3 2.6 2.7.4-2 2 .5 2.8L4 6.5 1.5 7.8 2 5l-2-2 2.7-.4z"/></g>
  <g transform="translate(203,77) rotate(14) scale(1.02)"><path d="M4 0l1.3 2.6 2.7.4-2 2 .5 2.8L4 6.5 1.5 7.8 2 5l-2-2 2.7-.4z"/></g>
  <g transform="translate(248,104) rotate(24) scale(0.94)"><path d="M4 0l4 4-4 4-4-4z"/></g>
  <g transform="translate(123,815) rotate(20) scale(0.62)"><path d="M4 0l1.3 2.6 2.7.4-2 2 .5 2.8L4 6.5 1.5 7.8 2 5l-2-2 2.7-.4z"/></g>
  <g transform="translate(545,438) rotate(-26) scale(0.85)"><path d="M4 0l4 4-4 4-4-4z"/></g>
  <g transform="translate(430,842) rotate(-24) scale(0.82)"><path d="M4 0l1.3 2.6 2.7.4-2 2 .5 2.8L4 6.5 1.5 7.8 2 5l-2-2 2.7-.4z"/></g>
  <g transform="translate(156,445) rotate(16) scale(0.86)"><circle cx="2" cy="2" r="1.8"/></g>
  <g transform="translate(666,276) rotate(21) scale(1.06)"><path d="M4 0l1.3 2.6 2.7.4-2 2 .5 2.8L4 6.5 1.5 7.8 2 5l-2-2 2.7-.4z"/></g>
  <g transform="translate(495,476) rotate(22) scale(0.97)"><path d="M4 0l1.3 2.6 2.7.4-2 2 .5 2.8L4 6.5 1.5 7.8 2 5l-2-2 2.7-.4z"/></g>
  <g transform="translate(251,850) rotate(-13) scale(1.04)"><path d="M4 0l1.3 2.6 2.7.4-2 2 .5 2.8L4 6.5 1.5 7.8 2 5l-2-2 2.7-.4z"/></g>
  <g transform="translate(249,768) rotate(6) scale(0.91)"><path d="M4 0l1.3 2.6 2.7.4-2 2 .5 2.8L4 6.5 1.5 7.8 2 5l-2-2 2.7-.4z"/></g>
  <g transform="translate(388,344) rotate(1) scale(1.03)"><path d="M4 0l1.3 2.6 2.7.4-2 2 .5 2.8L4 6.5 1.5 7.8 2 5l-2-2 2.7-.4z"/></g>
  <g transform="translate(217,363) rotate(-9) scale(0.74)"><path d="M4 0l4 4-4 4-4-4z"/></g>
</g>
</svg>